<svg width="784" height="649" viewBox="0 0 784 649" fill="none" xmlns="http://www.w3.org/2000/svg">
<g filter="url(#filter0_d_8_2)">
<mask id="path-1-outside-1_8_2" maskUnits="userSpaceOnUse" x="0" y="293.503" width="776" height="353" fill="black">
<rect fill="white" y="293.503" width="776" height="353"/>
<path d="M386.355 297.085C398.536 297.085 409.921 299.09 420.508 303.101C431.209 306.983 440.941 312.419 449.707 319.406C458.473 326.264 466.271 334.481 473.102 344.057C480.046 353.503 485.794 363.855 490.348 375.113C495.015 386.371 498.545 398.275 500.936 410.827C503.326 423.379 504.407 436.06 504.18 448.871V452.559C503.952 463.428 502.927 474.686 501.105 486.332C499.398 497.978 496.951 509.624 493.764 521.27C490.576 532.916 486.762 544.432 482.322 555.819C477.883 567.206 472.874 578.077 467.296 588.429C461.832 598.91 455.911 608.679 449.536 617.737C443.161 626.925 436.445 635.012 429.387 642L403.943 625.308C407.928 617.673 411.514 609.326 414.701 600.268C418.003 591.34 420.963 581.958 423.581 572.124C426.199 562.29 428.419 552.197 430.24 541.845C432.176 531.493 433.769 521.205 435.021 510.982C436.274 500.76 437.185 490.732 437.754 480.897C438.437 470.934 438.778 461.487 438.778 452.559C438.778 445.571 438.721 437.678 438.607 428.879C438.607 419.95 438.153 410.892 437.242 401.705C436.445 392.518 435.079 383.589 433.144 374.919C431.208 366.12 428.305 358.291 424.435 351.433C420.678 344.574 415.782 339.075 409.749 334.934C403.829 330.794 396.43 328.724 387.551 328.724C379.696 328.724 372.922 330.276 367.23 333.382C361.652 336.358 356.871 340.433 352.887 345.609C349.016 350.656 345.886 356.544 343.495 363.272C341.218 370.001 339.396 377.119 338.03 384.624C336.778 392 335.924 399.505 335.469 407.14C335.127 414.645 334.957 421.761 334.957 428.49V482.644H408.554V514.671H334.957V582.605H267.165V440.524C267.165 420.209 270.011 401.316 275.703 383.848C281.395 366.379 289.421 351.238 299.78 338.428C310.253 325.488 322.776 315.395 337.348 308.148C352.033 300.773 368.369 297.085 386.355 297.085ZM663.498 296.503C675.11 296.503 686.437 298.055 697.479 301.161C708.636 304.267 718.995 308.989 728.558 315.33C738.12 321.541 746.601 329.435 754.001 339.011C761.514 348.457 767.434 359.585 771.76 372.395L742.561 386.371C740.284 377.96 737.209 370.26 733.339 363.272C729.582 356.285 725.029 350.333 719.679 345.416C714.442 340.369 708.465 336.487 701.748 333.769C695.032 330.923 687.689 329.5 679.721 329.5C671.183 329.5 663.327 331.117 656.155 334.352C649.097 337.458 642.722 341.792 637.03 347.356C631.452 352.92 626.558 359.391 622.346 366.767C618.134 374.142 614.604 382.036 611.758 390.447C608.912 398.728 606.806 407.333 605.44 416.262C604.074 425.19 603.391 433.925 603.391 442.466C603.391 456.053 604.757 469.575 607.489 483.032C610.335 496.49 614.775 508.589 620.809 519.329C626.956 530.069 634.868 538.803 644.544 545.532C654.22 552.132 665.946 555.432 679.721 555.432C687.006 555.432 693.894 554.073 700.383 551.355C706.872 548.509 712.734 544.691 717.971 539.903C723.321 534.986 727.988 529.228 731.973 522.629C735.957 516.029 739.145 508.912 741.535 501.277L771.077 514.671C766.751 526.964 760.832 537.768 753.318 547.085C745.805 556.272 737.21 563.907 727.533 569.989C717.971 576.071 707.668 580.6 696.626 583.576C685.697 586.682 674.654 588.234 663.498 588.234C651.431 588.234 639.819 586.552 628.663 583.187C617.621 579.823 607.318 575.035 597.756 568.824C588.193 562.613 579.485 555.108 571.63 546.309C563.889 537.509 557.229 527.74 551.65 517C546.186 506.26 541.917 494.613 538.844 482.061C535.884 469.38 534.404 456.182 534.404 442.466C534.404 428.749 535.884 415.615 538.844 403.063C541.917 390.382 546.186 378.672 551.65 367.932C557.229 357.062 563.889 347.227 571.63 338.428C579.485 329.629 588.193 322.123 597.756 315.912C607.318 309.701 617.621 304.913 628.663 301.549C639.819 298.184 651.431 296.503 663.498 296.503ZM135.168 303.101C140.974 303.101 147.064 303.62 153.439 304.655C159.814 305.561 166.018 307.049 172.052 309.119C178.199 311.189 184.005 313.907 189.47 317.271C195.048 320.636 199.886 324.776 203.984 329.693C208.196 334.481 211.497 340.046 213.888 346.387C216.392 352.727 217.644 359.973 217.645 368.125C217.645 375.889 216.279 382.942 213.547 389.282C210.815 395.623 207.115 401.317 202.447 406.363C197.894 411.28 192.6 415.679 186.566 419.561C180.647 423.314 174.386 426.614 167.783 429.461C176.093 432.049 183.948 435.478 191.348 439.748C198.861 444.018 205.407 449.259 210.985 455.471C216.677 461.682 221.174 469.057 224.476 477.598C227.777 486.009 229.428 495.714 229.428 506.713C229.428 514.606 228.288 521.982 226.012 528.84C223.735 535.698 220.605 541.974 216.62 547.668C212.636 553.232 207.968 558.214 202.618 562.613C197.382 567.013 191.689 570.7 185.542 573.677C179.509 576.653 173.248 578.918 166.759 580.471C160.27 581.894 153.895 582.605 147.634 582.605H3V303.101H135.168ZM70.792 555.432H112.457C119.401 555.432 125.833 554.138 131.753 551.55C137.673 548.962 142.795 545.338 147.121 540.68C151.447 536.021 154.806 530.392 157.196 523.793C159.587 517.194 160.782 509.883 160.782 501.86C160.782 494.226 159.928 487.108 158.221 480.509C156.513 473.78 153.894 468.022 150.365 463.234C146.836 458.317 142.396 454.5 137.046 451.782C131.809 448.935 125.605 447.512 118.434 447.512H70.792V555.432ZM70.792 420.144H100.675C106.822 420.144 112.799 419.303 118.604 417.621C124.41 415.809 129.533 413.092 133.973 409.469C138.526 405.716 142.112 400.993 144.73 395.3C147.463 389.606 148.829 382.812 148.829 374.919C148.829 359.132 145.129 347.615 137.729 340.369C130.444 333.123 120.027 329.5 106.48 329.5H70.792V420.144Z"/>
</mask>
<path d="M386.355 297.085C398.536 297.085 409.921 299.09 420.508 303.101C431.209 306.983 440.941 312.419 449.707 319.406C458.473 326.264 466.271 334.481 473.102 344.057C480.046 353.503 485.794 363.855 490.348 375.113C495.015 386.371 498.545 398.275 500.936 410.827C503.326 423.379 504.407 436.06 504.18 448.871V452.559C503.952 463.428 502.927 474.686 501.105 486.332C499.398 497.978 496.951 509.624 493.764 521.27C490.576 532.916 486.762 544.432 482.322 555.819C477.883 567.206 472.874 578.077 467.296 588.429C461.832 598.91 455.911 608.679 449.536 617.737C443.161 626.925 436.445 635.012 429.387 642L403.943 625.308C407.928 617.673 411.514 609.326 414.701 600.268C418.003 591.34 420.963 581.958 423.581 572.124C426.199 562.29 428.419 552.197 430.24 541.845C432.176 531.493 433.769 521.205 435.021 510.982C436.274 500.76 437.185 490.732 437.754 480.897C438.437 470.934 438.778 461.487 438.778 452.559C438.778 445.571 438.721 437.678 438.607 428.879C438.607 419.95 438.153 410.892 437.242 401.705C436.445 392.518 435.079 383.589 433.144 374.919C431.208 366.12 428.305 358.291 424.435 351.433C420.678 344.574 415.782 339.075 409.749 334.934C403.829 330.794 396.43 328.724 387.551 328.724C379.696 328.724 372.922 330.276 367.23 333.382C361.652 336.358 356.871 340.433 352.887 345.609C349.016 350.656 345.886 356.544 343.495 363.272C341.218 370.001 339.396 377.119 338.03 384.624C336.778 392 335.924 399.505 335.469 407.14C335.127 414.645 334.957 421.761 334.957 428.49V482.644H408.554V514.671H334.957V582.605H267.165V440.524C267.165 420.209 270.011 401.316 275.703 383.848C281.395 366.379 289.421 351.238 299.78 338.428C310.253 325.488 322.776 315.395 337.348 308.148C352.033 300.773 368.369 297.085 386.355 297.085ZM663.498 296.503C675.11 296.503 686.437 298.055 697.479 301.161C708.636 304.267 718.995 308.989 728.558 315.33C738.12 321.541 746.601 329.435 754.001 339.011C761.514 348.457 767.434 359.585 771.76 372.395L742.561 386.371C740.284 377.96 737.209 370.26 733.339 363.272C729.582 356.285 725.029 350.333 719.679 345.416C714.442 340.369 708.465 336.487 701.748 333.769C695.032 330.923 687.689 329.5 679.721 329.5C671.183 329.5 663.327 331.117 656.155 334.352C649.097 337.458 642.722 341.792 637.03 347.356C631.452 352.92 626.558 359.391 622.346 366.767C618.134 374.142 614.604 382.036 611.758 390.447C608.912 398.728 606.806 407.333 605.44 416.262C604.074 425.19 603.391 433.925 603.391 442.466C603.391 456.053 604.757 469.575 607.489 483.032C610.335 496.49 614.775 508.589 620.809 519.329C626.956 530.069 634.868 538.803 644.544 545.532C654.22 552.132 665.946 555.432 679.721 555.432C687.006 555.432 693.894 554.073 700.383 551.355C706.872 548.509 712.734 544.691 717.971 539.903C723.321 534.986 727.988 529.228 731.973 522.629C735.957 516.029 739.145 508.912 741.535 501.277L771.077 514.671C766.751 526.964 760.832 537.768 753.318 547.085C745.805 556.272 737.21 563.907 727.533 569.989C717.971 576.071 707.668 580.6 696.626 583.576C685.697 586.682 674.654 588.234 663.498 588.234C651.431 588.234 639.819 586.552 628.663 583.187C617.621 579.823 607.318 575.035 597.756 568.824C588.193 562.613 579.485 555.108 571.63 546.309C563.889 537.509 557.229 527.74 551.65 517C546.186 506.26 541.917 494.613 538.844 482.061C535.884 469.38 534.404 456.182 534.404 442.466C534.404 428.749 535.884 415.615 538.844 403.063C541.917 390.382 546.186 378.672 551.65 367.932C557.229 357.062 563.889 347.227 571.63 338.428C579.485 329.629 588.193 322.123 597.756 315.912C607.318 309.701 617.621 304.913 628.663 301.549C639.819 298.184 651.431 296.503 663.498 296.503ZM135.168 303.101C140.974 303.101 147.064 303.62 153.439 304.655C159.814 305.561 166.018 307.049 172.052 309.119C178.199 311.189 184.005 313.907 189.47 317.271C195.048 320.636 199.886 324.776 203.984 329.693C208.196 334.481 211.497 340.046 213.888 346.387C216.392 352.727 217.644 359.973 217.645 368.125C217.645 375.889 216.279 382.942 213.547 389.282C210.815 395.623 207.115 401.317 202.447 406.363C197.894 411.28 192.6 415.679 186.566 419.561C180.647 423.314 174.386 426.614 167.783 429.461C176.093 432.049 183.948 435.478 191.348 439.748C198.861 444.018 205.407 449.259 210.985 455.471C216.677 461.682 221.174 469.057 224.476 477.598C227.777 486.009 229.428 495.714 229.428 506.713C229.428 514.606 228.288 521.982 226.012 528.84C223.735 535.698 220.605 541.974 216.62 547.668C212.636 553.232 207.968 558.214 202.618 562.613C197.382 567.013 191.689 570.7 185.542 573.677C179.509 576.653 173.248 578.918 166.759 580.471C160.27 581.894 153.895 582.605 147.634 582.605H3V303.101H135.168ZM70.792 555.432H112.457C119.401 555.432 125.833 554.138 131.753 551.55C137.673 548.962 142.795 545.338 147.121 540.68C151.447 536.021 154.806 530.392 157.196 523.793C159.587 517.194 160.782 509.883 160.782 501.86C160.782 494.226 159.928 487.108 158.221 480.509C156.513 473.78 153.894 468.022 150.365 463.234C146.836 458.317 142.396 454.5 137.046 451.782C131.809 448.935 125.605 447.512 118.434 447.512H70.792V555.432ZM70.792 420.144H100.675C106.822 420.144 112.799 419.303 118.604 417.621C124.41 415.809 129.533 413.092 133.973 409.469C138.526 405.716 142.112 400.993 144.73 395.3C147.463 389.606 148.829 382.812 148.829 374.919C148.829 359.132 145.129 347.615 137.729 340.369C130.444 333.123 120.027 329.5 106.48 329.5H70.792V420.144Z" fill="white"/>
<path d="M386.355 297.085L386.355 294.085H386.355V297.085ZM420.508 303.101L419.445 305.907L419.465 305.914L419.485 305.922L420.508 303.101ZM449.707 319.406L447.837 321.752L447.848 321.761L447.858 321.769L449.707 319.406ZM473.102 344.057L470.659 345.799L470.672 345.816L470.684 345.833L473.102 344.057ZM490.348 375.113L487.567 376.238L487.571 376.25L487.576 376.262L490.348 375.113ZM500.936 410.827L503.883 410.266L503.883 410.266L500.936 410.827ZM504.18 448.871L501.18 448.818L501.18 448.844V448.871H504.18ZM504.18 452.559L507.179 452.621L507.18 452.59V452.559H504.18ZM501.105 486.332L498.142 485.868L498.139 485.883L498.137 485.897L501.105 486.332ZM493.764 521.27L496.657 522.062L496.657 522.062L493.764 521.27ZM482.322 555.819L485.117 556.909L485.117 556.909L482.322 555.819ZM467.296 588.429L464.655 587.006L464.645 587.024L464.636 587.042L467.296 588.429ZM449.536 617.737L447.083 616.011L447.077 616.019L447.071 616.027L449.536 617.737ZM429.387 642L427.741 644.508L429.772 645.84L431.497 644.132L429.387 642ZM403.943 625.308L401.284 623.92L400.028 626.327L402.298 627.816L403.943 625.308ZM414.701 600.268L411.887 599.228L411.879 599.25L411.871 599.273L414.701 600.268ZM423.581 572.124L426.48 572.896L426.48 572.896L423.581 572.124ZM430.24 541.845L427.291 541.293L427.288 541.309L427.286 541.325L430.24 541.845ZM435.021 510.982L437.999 511.347L437.999 511.347L435.021 510.982ZM437.754 480.897L434.761 480.692L434.76 480.708L434.759 480.724L437.754 480.897ZM438.778 452.559L441.778 452.559L441.778 452.559L438.778 452.559ZM438.607 428.879H435.607V428.898L435.608 428.918L438.607 428.879ZM437.242 401.705L434.253 401.964L434.255 401.983L434.257 402.001L437.242 401.705ZM433.144 374.919L430.214 375.563L430.216 375.572L433.144 374.919ZM424.435 351.433L421.803 352.874L421.813 352.89L421.822 352.907L424.435 351.433ZM409.749 334.934L408.029 337.393L408.04 337.4L408.051 337.408L409.749 334.934ZM387.551 328.724L387.551 325.724H387.551V328.724ZM367.23 333.382L368.643 336.029L368.655 336.022L368.667 336.015L367.23 333.382ZM352.887 345.609L350.509 343.779L350.506 343.784L352.887 345.609ZM343.495 363.272L340.668 362.268L340.661 362.289L340.653 362.311L343.495 363.272ZM338.03 384.624L335.079 384.087L335.076 384.104L335.073 384.122L338.03 384.624ZM335.469 407.14L332.474 406.961L332.473 406.982L332.472 407.003L335.469 407.14ZM334.957 428.49L331.957 428.49V428.49H334.957ZM334.957 482.644H331.957V485.644H334.957V482.644ZM408.554 482.644H411.554V479.644H408.554V482.644ZM408.554 514.671V517.671H411.554V514.671H408.554ZM334.957 514.671V511.671H331.957V514.671H334.957ZM334.957 582.605V585.605H337.957V582.605H334.957ZM267.165 582.605H264.165V585.605H267.165V582.605ZM267.165 440.524L264.165 440.524V440.524H267.165ZM275.703 383.848L272.851 382.918L272.851 382.918L275.703 383.848ZM299.78 338.428L297.448 336.54L297.448 336.541L299.78 338.428ZM337.348 308.148L338.683 310.835L338.694 310.829L337.348 308.148ZM663.498 296.503L663.498 293.503L663.498 293.503L663.498 296.503ZM697.479 301.161L696.667 304.049L696.675 304.051L697.479 301.161ZM728.558 315.33L726.9 317.83L726.912 317.838L726.923 317.846L728.558 315.33ZM754.001 339.011L751.627 340.845L751.64 340.862L751.653 340.878L754.001 339.011ZM771.76 372.395L773.055 375.101L775.452 373.954L774.602 371.436L771.76 372.395ZM742.561 386.371L739.665 387.155L740.606 390.632L743.856 389.077L742.561 386.371ZM733.339 363.272L730.697 364.693L730.705 364.71L730.715 364.726L733.339 363.272ZM719.679 345.416L717.597 347.576L717.623 347.601L717.649 347.625L719.679 345.416ZM701.748 333.769L700.577 336.532L700.6 336.541L700.623 336.55L701.748 333.769ZM679.721 329.5L679.721 326.5H679.721V329.5ZM656.155 334.352L657.364 337.098L657.376 337.093L657.389 337.087L656.155 334.352ZM637.03 347.356L634.933 345.211L634.922 345.222L634.912 345.232L637.03 347.356ZM622.346 366.767L619.741 365.279L619.741 365.279L622.346 366.767ZM611.758 390.447L614.595 391.422L614.597 391.415L614.6 391.409L611.758 390.447ZM605.44 416.262L602.475 415.808L602.475 415.808L605.44 416.262ZM603.391 442.466L600.391 442.466L600.391 442.466L603.391 442.466ZM607.489 483.032L604.549 483.629L604.552 483.641L604.554 483.653L607.489 483.032ZM620.809 519.329L618.193 520.798L618.199 520.809L618.205 520.819L620.809 519.329ZM644.544 545.532L642.831 547.995L642.842 548.003L642.854 548.011L644.544 545.532ZM679.721 555.432L679.721 558.432L679.721 558.432L679.721 555.432ZM700.383 551.355L701.542 554.123L701.565 554.113L701.588 554.103L700.383 551.355ZM717.971 539.903L719.995 542.117L720.001 542.112L717.971 539.903ZM731.973 522.629L734.541 524.179L734.541 524.179L731.973 522.629ZM741.535 501.277L742.774 498.545L739.686 497.145L738.672 500.381L741.535 501.277ZM771.077 514.671L773.907 515.667L774.82 513.074L772.316 511.939L771.077 514.671ZM753.318 547.085L755.641 548.984L755.647 548.976L755.654 548.968L753.318 547.085ZM727.533 569.989L725.937 567.449L725.93 567.453L725.923 567.458L727.533 569.989ZM696.626 583.576L695.845 580.679L695.826 580.685L695.806 580.69L696.626 583.576ZM663.498 588.234L663.498 591.234H663.498V588.234ZM628.663 583.187L627.789 586.057L627.797 586.06L628.663 583.187ZM597.756 568.824L596.122 571.34L596.122 571.34L597.756 568.824ZM571.63 546.309L569.377 548.29L569.385 548.298L569.392 548.306L571.63 546.309ZM551.65 517L548.977 518.36L548.982 518.371L548.988 518.383L551.65 517ZM538.844 482.061L535.922 482.743L535.926 482.759L535.93 482.775L538.844 482.061ZM534.404 442.466L531.404 442.466L531.404 442.466L534.404 442.466ZM538.844 403.063L535.928 402.357L535.926 402.366L535.924 402.375L538.844 403.063ZM551.65 367.932L548.981 366.562L548.977 366.571L551.65 367.932ZM571.63 338.428L569.392 336.43L569.385 336.438L569.377 336.446L571.63 338.428ZM597.756 315.912L596.122 313.396L596.122 313.396L597.756 315.912ZM628.663 301.549L627.797 298.676L627.789 298.679L628.663 301.549ZM135.168 303.101L135.168 300.101H135.168V303.101ZM153.439 304.655L152.959 307.616L152.988 307.621L153.017 307.625L153.439 304.655ZM172.052 309.119L171.078 311.957L171.086 311.959L171.094 311.962L172.052 309.119ZM189.47 317.271L187.897 319.826L187.909 319.833L187.92 319.84L189.47 317.271ZM203.984 329.693L201.68 331.614L201.705 331.645L201.732 331.675L203.984 329.693ZM213.888 346.387L211.081 347.445L211.089 347.467L211.097 347.489L213.888 346.387ZM217.645 368.125L220.645 368.125L220.645 368.125L217.645 368.125ZM213.547 389.282L216.302 390.469L216.302 390.469L213.547 389.282ZM202.447 406.363L204.648 408.402L204.65 408.4L202.447 406.363ZM186.566 419.561L188.173 422.095L188.181 422.09L188.19 422.084L186.566 419.561ZM167.783 429.461L166.595 426.706L159.152 429.915L166.891 432.325L167.783 429.461ZM191.348 439.748L189.848 442.346L189.857 442.351L189.865 442.356L191.348 439.748ZM210.985 455.471L208.753 457.475L208.763 457.486L208.774 457.497L210.985 455.471ZM224.476 477.598L221.677 478.679L221.68 478.686L221.683 478.694L224.476 477.598ZM229.428 506.713L232.428 506.713V506.713H229.428ZM226.012 528.84L228.859 529.785L228.859 529.785L226.012 528.84ZM216.62 547.668L219.059 549.414L219.069 549.401L219.078 549.388L216.62 547.668ZM202.618 562.613L200.713 560.296L200.701 560.306L200.688 560.316L202.618 562.613ZM185.542 573.677L184.235 570.976L184.225 570.981L184.215 570.986L185.542 573.677ZM166.759 580.471L167.402 583.401L167.429 583.395L167.457 583.388L166.759 580.471ZM147.634 582.605L147.634 585.605L147.634 585.605L147.634 582.605ZM3 582.605H0V585.605H3V582.605ZM3 303.101V300.101H0V303.101H3ZM70.792 555.432H67.792V558.432H70.792V555.432ZM112.457 555.432L112.457 558.432L112.457 558.432L112.457 555.432ZM131.753 551.55L132.955 554.299L132.955 554.298L131.753 551.55ZM147.121 540.68L149.319 542.721L149.319 542.721L147.121 540.68ZM157.196 523.793L160.017 524.815L160.017 524.815L157.196 523.793ZM160.782 501.86L163.782 501.86V501.86H160.782ZM158.221 480.509L155.313 481.247L155.316 481.26L158.221 480.509ZM150.365 463.234L147.928 464.983L147.939 464.999L147.95 465.014L150.365 463.234ZM137.046 451.782L135.613 454.418L135.65 454.438L135.687 454.457L137.046 451.782ZM118.434 447.512L118.434 444.512H118.434V447.512ZM70.792 447.512V444.512H67.792V447.512H70.792ZM70.792 420.144H67.792V423.144H70.792V420.144ZM100.675 420.144L100.675 423.144L100.675 423.144L100.675 420.144ZM118.604 417.621L119.439 420.502L119.469 420.494L119.498 420.485L118.604 417.621ZM133.973 409.469L135.869 411.793L135.875 411.788L135.881 411.784L133.973 409.469ZM144.73 395.3L142.026 394.002L142.015 394.024L142.005 394.046L144.73 395.3ZM148.829 374.919L151.829 374.919V374.919H148.829ZM137.729 340.369L135.614 342.496L135.622 342.504L135.63 342.512L137.729 340.369ZM106.48 329.5L106.48 326.5H106.48V329.5ZM70.792 329.5V326.5H67.792V329.5H70.792ZM386.355 297.085L386.355 300.085C398.201 300.085 409.222 302.034 419.445 305.907L420.508 303.101L421.571 300.296C410.619 296.147 398.872 294.085 386.355 294.085L386.355 297.085ZM420.508 303.101L419.485 305.922C429.884 309.694 439.33 314.971 447.837 321.752L449.707 319.406L451.577 317.06C442.553 309.867 432.533 304.273 421.531 300.281L420.508 303.101ZM449.707 319.406L447.858 321.769C456.385 328.44 463.987 336.444 470.659 345.799L473.102 344.057L475.544 342.314C468.556 332.518 460.56 324.089 451.556 317.043L449.707 319.406ZM473.102 344.057L470.684 345.833C477.475 355.071 483.103 365.204 487.567 376.238L490.348 375.113L493.129 373.988C488.485 362.507 482.616 351.934 475.519 342.28L473.102 344.057ZM490.348 375.113L487.576 376.262C492.162 387.322 495.634 399.028 497.989 411.388L500.936 410.827L503.883 410.266C501.455 397.522 497.868 385.42 493.119 373.964L490.348 375.113ZM500.936 410.827L497.989 411.388C500.34 423.737 501.404 436.213 501.18 448.818L504.18 448.871L507.179 448.924C507.411 435.908 506.312 423.021 503.883 410.266L500.936 410.827ZM504.18 448.871H501.18V452.559H504.18H507.18V448.871H504.18ZM504.18 452.559L501.18 452.496C500.956 463.22 499.944 474.344 498.142 485.868L501.105 486.332L504.069 486.796C505.91 475.028 506.948 463.636 507.179 452.621L504.18 452.559ZM501.105 486.332L498.137 485.897C496.448 497.419 494.026 508.947 490.87 520.478L493.764 521.27L496.657 522.062C499.876 510.302 502.348 498.536 504.074 486.767L501.105 486.332ZM493.764 521.27L490.87 520.478C487.711 532.022 483.929 543.439 479.527 554.729L482.322 555.819L485.117 556.909C489.594 545.426 493.442 533.81 496.657 522.062L493.764 521.27ZM482.322 555.819L479.527 554.729C475.13 566.007 470.173 576.766 464.655 587.006L467.296 588.429L469.937 589.852C475.575 579.388 480.635 568.406 485.117 556.909L482.322 555.819ZM467.296 588.429L464.636 587.042C459.229 597.413 453.377 607.068 447.083 616.011L449.536 617.737L451.989 619.464C458.446 610.29 464.434 600.407 469.956 589.815L467.296 588.429ZM449.536 617.737L447.071 616.027C440.788 625.082 434.188 633.025 427.276 639.868L429.387 642L431.497 644.132C438.701 637 445.534 628.767 452.001 619.447L449.536 617.737ZM429.387 642L431.032 639.492L405.589 622.799L403.943 625.308L402.298 627.816L427.741 644.508L429.387 642ZM403.943 625.308L406.603 626.696C410.66 618.921 414.302 610.442 417.531 601.264L414.701 600.268L411.871 599.273C408.726 608.211 405.195 616.425 401.284 623.92L403.943 625.308ZM414.701 600.268L417.515 601.309C420.851 592.286 423.839 582.815 426.48 572.896L423.581 572.124L420.682 571.352C418.086 581.102 415.154 590.393 411.887 599.228L414.701 600.268ZM423.581 572.124L426.48 572.896C429.121 562.976 431.359 552.798 433.195 542.365L430.24 541.845L427.286 541.325C425.479 551.595 423.277 561.604 420.682 571.352L423.581 572.124ZM430.24 541.845L433.189 542.396C435.136 531.983 436.739 521.634 437.999 511.347L435.021 510.982L432.044 510.618C430.799 520.776 429.215 531.002 427.291 541.293L430.24 541.845ZM435.021 510.982L437.999 511.347C439.259 501.064 440.176 490.972 440.749 481.071L437.754 480.897L434.759 480.724C434.194 490.491 433.289 500.456 432.044 510.618L435.021 510.982ZM437.754 480.897L440.747 481.103C441.434 471.078 441.778 461.563 441.778 452.559H438.778H435.778C435.778 461.411 435.44 470.789 434.761 480.692L437.754 480.897ZM438.778 452.559L441.778 452.559C441.778 445.555 441.721 437.649 441.607 428.84L438.607 428.879L435.608 428.918C435.721 437.707 435.778 445.587 435.778 452.559L438.778 452.559ZM438.607 428.879H441.607C441.607 419.848 441.148 410.691 440.228 401.409L437.242 401.705L434.257 402.001C435.158 411.093 435.607 420.052 435.607 428.879H438.607ZM437.242 401.705L440.231 401.446C439.423 392.131 438.037 383.07 436.071 374.265L433.144 374.919L430.216 375.572C432.121 384.107 433.468 392.905 434.253 401.964L437.242 401.705ZM433.144 374.919L436.074 374.274C434.083 365.225 431.083 357.11 427.047 349.958L424.435 351.433L421.822 352.907C425.527 359.472 428.333 367.014 430.214 375.563L433.144 374.919ZM424.435 351.433L427.066 349.991C423.099 342.75 417.894 336.886 411.447 332.461L409.749 334.934L408.051 337.408C413.671 341.265 418.257 346.399 421.803 352.874L424.435 351.433ZM409.749 334.934L411.469 332.476C404.939 327.909 396.903 325.724 387.551 325.724L387.551 328.724L387.551 331.724C395.958 331.724 402.719 333.678 408.029 337.393L409.749 334.934ZM387.551 328.724V325.724C379.299 325.724 372.01 327.356 365.794 330.748L367.23 333.382L368.667 336.015C373.834 333.196 380.092 331.724 387.551 331.724V328.724ZM367.23 333.382L365.818 330.735C359.852 333.918 354.745 338.277 350.51 343.779L352.887 345.609L355.264 347.439C358.997 342.59 363.453 338.797 368.643 336.029L367.23 333.382ZM352.887 345.609L350.506 343.784C346.423 349.107 343.151 355.28 340.668 362.268L343.495 363.272L346.322 364.277C348.62 357.808 351.609 352.204 355.267 347.435L352.887 345.609ZM343.495 363.272L340.653 362.311C338.326 369.188 336.469 376.448 335.079 384.087L338.03 384.624L340.982 385.161C342.324 377.79 344.11 370.814 346.337 364.234L343.495 363.272ZM338.03 384.624L335.073 384.122C333.802 391.607 332.936 399.22 332.474 406.961L335.469 407.14L338.463 407.318C338.912 399.79 339.754 392.392 340.988 385.126L338.03 384.624ZM335.469 407.14L332.472 407.003C332.129 414.549 331.957 421.711 331.957 428.49L334.957 428.49L337.957 428.49C337.957 421.812 338.126 414.741 338.466 407.276L335.469 407.14ZM334.957 428.49H331.957V482.644H334.957H337.957V428.49H334.957ZM334.957 482.644V485.644H408.554V482.644V479.644H334.957V482.644ZM408.554 482.644H405.554V514.671H408.554H411.554V482.644H408.554ZM408.554 514.671V511.671H334.957V514.671V517.671H408.554V514.671ZM334.957 514.671H331.957V582.605H334.957H337.957V514.671H334.957ZM334.957 582.605V579.605H267.165V582.605V585.605H334.957V582.605ZM267.165 582.605H270.165V440.524H267.165H264.165V582.605H267.165ZM267.165 440.524L270.165 440.524C270.165 420.491 272.971 401.916 278.556 384.777L275.703 383.848L272.851 382.918C267.051 400.717 264.165 419.926 264.165 440.524L267.165 440.524ZM275.703 383.848L278.556 384.777C284.147 367.616 292.009 352.809 302.113 340.314L299.78 338.428L297.448 336.541C286.833 349.667 278.643 365.141 272.851 382.918L275.703 383.848ZM299.78 338.428L302.112 340.315C312.321 327.702 324.507 317.885 338.683 310.835L337.348 308.148L336.012 305.462C321.046 312.905 308.186 323.274 297.448 336.54L299.78 338.428ZM337.348 308.148L338.694 310.829C352.923 303.683 368.791 300.085 386.355 300.085V297.085V294.085C367.946 294.085 351.143 297.863 336.001 305.467L337.348 308.148ZM663.498 296.503V299.503C674.839 299.503 685.892 301.019 696.667 304.049L697.479 301.161L698.292 298.273C686.982 295.092 675.381 293.503 663.498 293.503V296.503ZM697.479 301.161L696.675 304.051C707.531 307.073 717.602 311.665 726.9 317.83L728.558 315.33L730.215 312.83C720.388 306.314 709.74 301.46 698.284 298.271L697.479 301.161ZM728.558 315.33L726.923 317.846C736.186 323.862 744.421 331.52 751.627 340.845L754.001 339.011L756.375 337.176C748.782 327.35 740.054 319.22 730.192 312.814L728.558 315.33ZM754.001 339.011L751.653 340.878C758.926 350.022 764.689 360.834 768.917 373.355L771.76 372.395L774.602 371.436C770.178 358.336 764.103 346.892 756.349 337.143L754.001 339.011ZM771.76 372.395L770.465 369.689L741.265 383.665L742.561 386.371L743.856 389.077L773.055 375.101L771.76 372.395ZM742.561 386.371L745.456 385.587C743.122 376.964 739.961 369.036 735.963 361.819L733.339 363.272L730.715 364.726C734.458 371.484 737.445 378.956 739.665 387.155L742.561 386.371ZM733.339 363.272L735.981 361.852C732.08 354.596 727.327 348.371 721.709 343.207L719.679 345.416L717.649 347.625C722.731 352.295 727.084 357.974 730.697 364.693L733.339 363.272ZM719.679 345.416L721.76 343.256C716.249 337.944 709.947 333.85 702.873 330.988L701.748 333.769L700.623 336.55C706.982 339.123 712.636 342.795 717.597 347.576L719.679 345.416ZM701.748 333.769L702.919 331.007C695.799 327.99 688.054 326.5 679.721 326.5L679.721 329.5L679.721 332.5C687.325 332.5 694.264 333.856 700.577 336.532L701.748 333.769ZM679.721 329.5V326.5C670.794 326.5 662.513 328.193 654.922 331.618L656.155 334.352L657.389 337.087C664.141 334.041 671.571 332.5 679.721 332.5V329.5ZM656.155 334.352L654.947 331.607C647.549 334.862 640.874 339.403 634.933 345.211L637.03 347.356L639.127 349.502C644.57 344.181 650.646 340.054 657.364 337.098L656.155 334.352ZM637.03 347.356L634.912 345.232C629.129 351 624.075 357.688 619.741 365.279L622.346 366.767L624.951 368.254C629.04 361.093 633.775 354.841 639.149 349.48L637.03 347.356ZM622.346 366.767L619.741 365.279C615.429 372.829 611.821 380.9 608.916 389.486L611.758 390.447L614.6 391.409C617.387 383.172 620.839 375.455 624.951 368.254L622.346 366.767ZM611.758 390.447L608.921 389.472C606.015 397.928 603.867 406.708 602.475 415.808L605.44 416.262L608.406 416.715C609.746 407.959 611.809 399.529 614.595 391.422L611.758 390.447ZM605.44 416.262L602.475 415.808C601.087 424.878 600.391 433.765 600.391 442.466H603.391H606.391C606.391 434.086 607.061 425.502 608.406 416.715L605.44 416.262ZM603.391 442.466L600.391 442.466C600.391 456.255 601.778 469.977 604.549 483.629L607.489 483.032L610.429 482.435C607.737 469.172 606.391 455.85 606.391 442.466L603.391 442.466ZM607.489 483.032L604.554 483.653C607.456 497.374 611.994 509.764 618.193 520.798L620.809 519.329L623.424 517.86C617.556 507.413 613.215 495.606 610.424 482.411L607.489 483.032ZM620.809 519.329L618.205 520.819C624.562 531.926 632.771 541 642.831 547.995L644.544 545.532L646.257 543.069C636.964 536.607 629.35 528.212 623.412 517.839L620.809 519.329ZM644.544 545.532L642.854 548.011C653.111 555.006 665.452 558.432 679.721 558.432V555.432V552.432C666.441 552.432 655.33 549.257 646.234 543.054L644.544 545.532ZM679.721 555.432L679.721 558.432C687.39 558.432 694.673 556.999 701.542 554.123L700.383 551.355L699.224 548.588C693.115 551.146 686.623 552.432 679.721 552.432L679.721 555.432ZM700.383 551.355L701.588 554.103C708.378 551.124 714.517 547.126 719.995 542.117L717.971 539.903L715.946 537.689C710.951 542.256 705.365 545.893 699.178 548.608L700.383 551.355ZM717.971 539.903L720.001 542.112C725.573 536.991 730.418 531.008 734.541 524.179L731.973 522.629L729.404 521.078C725.558 527.448 721.069 532.981 715.941 537.694L717.971 539.903ZM731.973 522.629L734.541 524.179C738.654 517.367 741.938 510.029 744.398 502.174L741.535 501.277L738.672 500.381C736.351 507.795 733.26 514.692 729.404 521.078L731.973 522.629ZM741.535 501.277L740.296 504.01L769.838 517.403L771.077 514.671L772.316 511.939L742.774 498.545L741.535 501.277ZM771.077 514.671L768.247 513.675C764.025 525.674 758.264 536.173 750.983 545.202L753.318 547.085L755.654 548.968C763.399 539.363 769.478 528.253 773.907 515.667L771.077 514.671ZM753.318 547.085L750.996 545.186C743.68 554.131 735.328 561.547 725.937 567.449L727.533 569.989L729.13 572.529C739.092 566.268 747.93 558.413 755.641 548.984L753.318 547.085ZM727.533 569.989L725.923 567.458C716.619 573.375 706.597 577.782 695.845 580.679L696.626 583.576L697.407 586.473C708.74 583.418 719.322 578.767 729.143 572.521L727.533 569.989ZM696.626 583.576L695.806 580.69C685.139 583.722 674.372 585.234 663.498 585.234V588.234V591.234C674.937 591.234 686.256 589.642 697.446 586.462L696.626 583.576ZM663.498 588.234L663.498 585.234C651.714 585.234 640.395 583.592 629.529 580.315L628.663 583.187L627.797 586.06C639.244 589.512 651.148 591.234 663.498 591.234L663.498 588.234ZM628.663 583.187L629.537 580.318C618.76 577.034 608.714 572.365 599.39 566.308L597.756 568.824L596.122 571.34C605.923 577.706 616.481 582.612 627.789 586.057L628.663 583.187ZM597.756 568.824L599.39 566.308C590.059 560.247 581.552 552.918 573.868 544.311L571.63 546.309L569.392 548.306C577.418 557.297 586.328 564.979 596.122 571.34L597.756 568.824ZM571.63 546.309L573.882 544.327C566.307 535.716 559.783 526.149 554.313 515.617L551.65 517L548.988 518.383C554.674 529.331 561.471 539.303 569.377 548.29L571.63 546.309ZM551.65 517L554.324 515.64C548.972 505.119 544.78 493.692 541.758 481.348L538.844 482.061L535.93 482.775C539.054 495.535 543.4 507.4 548.977 518.36L551.65 517ZM538.844 482.061L541.765 481.38C538.86 468.934 537.404 455.965 537.404 442.466L534.404 442.466L531.404 442.466C531.404 456.399 532.908 469.827 535.922 482.743L538.844 482.061ZM534.404 442.466H537.404C537.404 428.967 538.86 416.064 541.764 403.752L538.844 403.063L535.924 402.375C532.908 415.166 531.404 428.532 531.404 442.466H534.404ZM538.844 403.063L541.759 403.77C544.783 391.297 548.974 379.808 554.324 369.292L551.65 367.932L548.977 366.571C543.398 377.535 539.052 389.468 535.928 402.357L538.844 403.063ZM551.65 367.932L554.319 369.301C559.789 358.643 566.312 349.015 573.882 340.409L571.63 338.428L569.377 336.446C561.466 345.439 554.668 355.481 548.981 366.562L551.65 367.932ZM571.63 338.428L573.868 340.425C581.552 331.818 590.059 324.489 599.39 318.428L597.756 315.912L596.122 313.396C586.328 319.757 577.418 327.439 569.392 336.43L571.63 338.428ZM597.756 315.912L599.39 318.428C608.714 312.372 618.76 307.702 629.537 304.418L628.663 301.549L627.789 298.679C616.481 302.124 605.923 307.03 596.122 313.396L597.756 315.912ZM628.663 301.549L629.529 304.421C640.395 301.144 651.714 299.503 663.498 299.503L663.498 296.503L663.498 293.503C651.148 293.503 639.244 295.224 627.797 298.677L628.663 301.549ZM135.168 303.101L135.168 306.101C140.796 306.101 146.725 306.604 152.959 307.616L153.439 304.655L153.92 301.694C147.404 300.636 141.152 300.101 135.168 300.101L135.168 303.101ZM153.439 304.655L153.017 307.625C159.206 308.505 165.226 309.948 171.078 311.957L172.052 309.119L173.025 306.281C166.811 304.149 160.422 302.617 153.861 301.685L153.439 304.655ZM172.052 309.119L171.094 311.962C177.029 313.961 182.628 316.582 187.897 319.826L189.47 317.271L191.043 314.717C185.383 311.232 179.37 308.418 173.009 306.276L172.052 309.119ZM189.47 317.271L187.92 319.84C193.218 323.035 197.799 326.958 201.68 331.614L203.984 329.693L206.289 327.773C201.973 322.594 196.878 318.236 191.019 314.702L189.47 317.271ZM203.984 329.693L201.732 331.675C205.69 336.174 208.809 341.421 211.081 347.445L213.888 346.387L216.695 345.328C214.185 338.671 210.703 332.788 206.237 327.712L203.984 329.693ZM213.888 346.387L211.097 347.489C213.439 353.417 214.644 360.278 214.645 368.125L217.645 368.125L220.645 368.125C220.644 359.668 219.345 352.037 216.678 345.285L213.888 346.387ZM217.645 368.125H214.645C214.645 375.532 213.343 382.174 210.792 388.095L213.547 389.282L216.302 390.469C219.215 383.71 220.645 376.246 220.645 368.125H217.645ZM213.547 389.282L210.792 388.095C208.194 394.124 204.68 399.531 200.245 404.326L202.447 406.363L204.65 408.4C209.549 403.103 213.436 397.121 216.302 390.469L213.547 389.282ZM202.447 406.363L200.246 404.325C195.876 409.044 190.779 413.283 184.943 417.039L186.566 419.561L188.19 422.084C194.42 418.075 199.912 413.517 204.648 408.402L202.447 406.363ZM186.566 419.561L184.96 417.028C179.177 420.694 173.057 423.92 166.595 426.706L167.783 429.461L168.971 432.216C175.715 429.308 182.116 425.934 188.173 422.095L186.566 419.561ZM167.783 429.461L166.891 432.325C174.994 434.848 182.644 438.189 189.848 442.346L191.348 439.748L192.847 437.15C185.252 432.767 177.193 429.249 168.675 426.597L167.783 429.461ZM191.348 439.748L189.865 442.356C197.108 446.472 203.398 451.513 208.753 457.475L210.985 455.471L213.217 453.466C207.416 447.006 200.614 441.564 192.83 437.14L191.348 439.748ZM210.985 455.471L208.774 457.497C214.192 463.41 218.499 470.458 221.677 478.679L224.476 477.598L227.274 476.516C223.849 467.657 219.163 459.954 213.197 453.444L210.985 455.471ZM224.476 477.598L221.683 478.694C224.821 486.689 226.428 496.01 226.428 506.713H229.428H232.428C232.428 495.418 230.733 485.328 227.268 476.501L224.476 477.598ZM229.428 506.713L226.428 506.713C226.428 514.314 225.331 521.368 223.165 527.895L226.012 528.84L228.859 529.785C231.246 522.595 232.428 514.898 232.428 506.713L229.428 506.713ZM226.012 528.84L223.165 527.895C220.976 534.488 217.973 540.502 214.162 545.948L216.62 547.668L219.078 549.388C223.236 543.447 226.494 536.908 228.859 529.785L226.012 528.84ZM216.62 547.668L214.181 545.921C210.351 551.27 205.864 556.061 200.713 560.296L202.618 562.613L204.524 564.93C210.073 560.367 214.921 555.194 219.059 549.414L216.62 547.668ZM202.618 562.613L200.688 560.316C195.642 564.556 190.158 568.109 184.235 570.976L185.542 573.677L186.849 576.377C193.22 573.292 199.122 569.469 204.548 564.91L202.618 562.613ZM185.542 573.677L184.215 570.986C178.38 573.864 172.33 576.053 166.061 577.553L166.759 580.471L167.457 583.388C174.165 581.783 180.637 579.441 186.869 576.367L185.542 573.677ZM166.759 580.471L166.116 577.54C159.826 578.92 153.666 579.605 147.634 579.605L147.634 582.605L147.634 585.605C154.124 585.605 160.714 584.868 167.402 583.401L166.759 580.471ZM147.634 582.605V579.605H3V582.605V585.605H147.634V582.605ZM3 582.605H6V303.101H3H0V582.605H3ZM3 303.101V306.101H135.168V303.101V300.101H3V303.101ZM70.792 555.432V558.432H112.457V555.432V552.432H70.792V555.432ZM112.457 555.432L112.457 558.432C119.783 558.432 126.628 557.064 132.955 554.299L131.753 551.55L130.551 548.801C125.038 551.211 119.019 552.432 112.457 552.432L112.457 555.432ZM131.753 551.55L132.955 554.298C139.245 551.548 144.709 547.686 149.319 542.721L147.121 540.68L144.923 538.638C140.882 542.99 136.1 546.375 130.551 548.801L131.753 551.55ZM147.121 540.68L149.319 542.721C153.946 537.739 157.504 531.753 160.017 524.815L157.196 523.793L154.376 522.771C152.108 529.032 148.948 534.304 144.923 538.638L147.121 540.68ZM157.196 523.793L160.017 524.815C162.542 517.845 163.782 510.182 163.782 501.86L160.782 501.86L157.782 501.86C157.782 509.583 156.632 516.543 154.376 522.771L157.196 523.793ZM160.782 501.86H163.782C163.782 494.002 162.903 486.629 161.125 479.757L158.221 480.509L155.316 481.26C156.953 487.587 157.782 494.449 157.782 501.86H160.782ZM158.221 480.509L161.129 479.771C159.341 472.728 156.574 466.602 152.78 461.454L150.365 463.234L147.95 465.014C151.214 469.442 153.685 474.832 155.313 481.247L158.221 480.509ZM150.365 463.234L152.802 461.485C148.996 456.181 144.187 452.044 138.404 449.107L137.046 451.782L135.687 454.457C140.605 456.955 144.677 460.453 147.928 464.983L150.365 463.234ZM137.046 451.782L138.479 449.146C132.721 446.017 126.005 444.512 118.434 444.512L118.434 447.512L118.434 450.512C125.206 450.512 130.897 451.854 135.613 454.418L137.046 451.782ZM118.434 447.512V444.512H70.792V447.512V450.512H118.434V447.512ZM70.792 447.512H67.792V555.432H70.792H73.792V447.512H70.792ZM70.792 420.144V423.144H100.675V420.144V417.144H70.792V420.144ZM100.675 420.144L100.675 423.144C107.1 423.144 113.358 422.265 119.439 420.502L118.604 417.621L117.77 414.74C112.24 416.342 106.544 417.144 100.675 417.144L100.675 420.144ZM118.604 417.621L119.498 420.485C125.647 418.566 131.115 415.673 135.869 411.793L133.973 409.469L132.076 407.144C127.951 410.511 123.173 413.053 117.711 414.757L118.604 417.621ZM133.973 409.469L135.881 411.784C140.805 407.726 144.661 402.632 147.456 396.553L144.73 395.3L142.005 394.046C139.564 399.355 136.248 403.706 132.065 407.154L133.973 409.469ZM144.73 395.3L147.435 396.598C150.404 390.411 151.829 383.152 151.829 374.919L148.829 374.919L145.829 374.919C145.829 382.472 144.521 388.801 142.026 394.002L144.73 395.3ZM148.829 374.919H151.829C151.829 358.742 148.046 346.273 139.829 338.226L137.729 340.369L135.63 342.512C142.212 348.958 145.829 359.522 145.829 374.919H148.829ZM137.729 340.369L139.845 338.242C131.836 330.276 120.558 326.5 106.48 326.5L106.48 329.5L106.48 332.5C119.496 332.5 129.052 335.97 135.614 342.496L137.729 340.369ZM106.48 329.5V326.5H70.792V329.5V332.5H106.48V329.5ZM70.792 329.5H67.792V420.144H70.792H73.792V329.5H70.792Z" fill="#887662" mask="url(#path-1-outside-1_8_2)"/>
</g>
<g filter="url(#filter1_d_8_2)">
<path d="M628.458 24.5423C628.458 12.6448 638.102 3 650 3V3C661.898 3 671.542 12.6448 671.542 24.5423V225.458C671.542 237.355 661.898 247 650 247V247C638.102 247 628.458 237.355 628.458 225.458V24.5423ZM528 124.042C528 113.753 536.341 105.412 546.63 105.412H753.37C763.659 105.412 772 113.753 772 124.042V124.042C772 134.331 763.659 142.672 753.37 142.672H546.63C536.341 142.672 528 134.331 528 124.042V124.042Z" fill="white"/>
<path d="M650 1.5C662.726 1.5 673.042 11.8162 673.042 24.542V103.912H753.37C764.488 103.912 773.5 112.925 773.5 124.042C773.5 135.159 764.488 144.172 753.37 144.172H673.042V225.458C673.042 238.184 662.726 248.5 650 248.5C637.274 248.5 626.958 238.184 626.958 225.458V144.172H546.63C535.512 144.172 526.5 135.159 526.5 124.042C526.5 112.925 535.512 103.912 546.63 103.912H626.958V24.542C626.958 11.8162 637.274 1.5 650 1.5Z" stroke="#887662" stroke-width="3"/>
</g>
<defs>
<filter id="filter0_d_8_2" x="0" y="293.503" width="783.453" height="355.338" filterUnits="userSpaceOnUse" color-interpolation-filters="sRGB">
<feFlood flood-opacity="0" result="BackgroundImageFix"/>
<feColorMatrix in="SourceAlpha" type="matrix" values="0 0 0 0 0 0 0 0 0 0 0 0 0 0 0 0 0 0 127 0" result="hardAlpha"/>
<feOffset dx="8" dy="3"/>
<feComposite in2="hardAlpha" operator="out"/>
<feColorMatrix type="matrix" values="0 0 0 0 0 0 0 0 0 0 0 0 0 0 0 0 0 0 0.25 0"/>
<feBlend mode="normal" in2="BackgroundImageFix" result="effect1_dropShadow_8_2"/>
<feBlend mode="normal" in="SourceGraphic" in2="effect1_dropShadow_8_2" result="shape"/>
</filter>
<filter id="filter1_d_8_2" x="525" y="0" width="258" height="253" filterUnits="userSpaceOnUse" color-interpolation-filters="sRGB">
<feFlood flood-opacity="0" result="BackgroundImageFix"/>
<feColorMatrix in="SourceAlpha" type="matrix" values="0 0 0 0 0 0 0 0 0 0 0 0 0 0 0 0 0 0 127 0" result="hardAlpha"/>
<feOffset dx="8" dy="3"/>
<feComposite in2="hardAlpha" operator="out"/>
<feColorMatrix type="matrix" values="0 0 0 0 0 0 0 0 0 0 0 0 0 0 0 0 0 0 0.25 0"/>
<feBlend mode="normal" in2="BackgroundImageFix" result="effect1_dropShadow_8_2"/>
<feBlend mode="normal" in="SourceGraphic" in2="effect1_dropShadow_8_2" result="shape"/>
</filter>
</defs>
</svg>
